<?xml version="1.0" encoding="UTF-8"?>
<svg version="1.1" xmlns="http://www.w3.org/2000/svg" width="104" height="104">
<path d="M0 0 C0.99 0 1.98 0 3 0 C3.35191406 0.96679688 3.70382813 1.93359375 4.06640625 2.9296875 C6.81747955 10.26116577 9.67524215 16.67784956 14.484375 22.94921875 C16 25 16 25 16.953125 27.14453125 C18.28293825 29.50147637 19.56595117 29.91205393 22 31 C23.0262013 31.88723654 24.02565802 32.80610621 25 33.75 C31.77574548 39.70974172 40.55697111 43.07741308 49 46 C48.67 47.32 48.34 48.64 48 50 C41.18238106 50.0252689 34.36477411 50.04283244 27.54711914 50.05493164 C25.22582549 50.05997333 22.90453503 50.06680651 20.58325195 50.07543945 C17.25471205 50.08751225 13.92621398 50.09322979 10.59765625 50.09765625 C9.03048607 50.10539818 9.03048607 50.10539818 7.43165588 50.11329651 C6.47073532 50.11337204 5.50981476 50.11344757 4.51977539 50.11352539 C3.66928116 50.115746 2.81878693 50.11796661 1.94252014 50.12025452 C0 50 0 50 -1 49 C-1.09831146 47.50129952 -1.12798456 45.99801461 -1.12939453 44.49609375 C-1.13254669 43.53840088 -1.13569885 42.58070801 -1.13894653 41.59399414 C-1.1369223 40.55235107 -1.13489807 39.51070801 -1.1328125 38.4375 C-1.13376923 37.37587646 -1.13472595 36.31425293 -1.13571167 35.22045898 C-1.13639364 32.97086528 -1.13453819 30.72126963 -1.13037109 28.47167969 C-1.1250231 25.01492929 -1.13031554 21.55830883 -1.13671875 18.1015625 C-1.13605797 15.92187471 -1.13477682 13.742187 -1.1328125 11.5625 C-1.13483673 10.52085693 -1.13686096 9.47921387 -1.13894653 8.40600586 C-1.13579437 7.44831299 -1.13264221 6.49062012 -1.12939453 5.50390625 C-1.12859894 4.65642822 -1.12780334 3.8089502 -1.12698364 2.93579102 C-1 1 -1 1 0 0 Z " fill="#000000" transform="translate(55,0)"/>
<path d="M0 0 C16.5 0 33 0 50 0 C49.67 1.32 49.34 2.64 49 4 C46.4453125 5.23828125 46.4453125 5.23828125 43.125 6.3125 C28.20003257 11.6743722 17.39424471 20.95455969 10 35 C8.6345242 38.45541238 7.38191228 41.91045295 6.23828125 45.4453125 C5 48 5 48 2.91796875 48.9296875 C2.28503906 48.95289063 1.65210938 48.97609375 1 49 C0 48 0 48 -0.12025452 46.05747986 C-0.11803391 45.20698563 -0.11581329 44.35649139 -0.11352539 43.48022461 C-0.11340454 42.50581421 -0.11328369 41.53140381 -0.11315918 40.52746582 C-0.10804321 39.49617554 -0.10292725 38.46488525 -0.09765625 37.40234375 C-0.09664917 36.45975708 -0.09564209 35.51717041 -0.09460449 34.54602051 C-0.08935477 31.00983471 -0.07539364 27.47366619 -0.0625 23.9375 C-0.041875 16.038125 -0.02125 8.13875 0 0 Z " fill="#000000" transform="translate(54,55)"/>
<path d="M0 0 C0.99 0 1.98 0 3 0 C3 16.5 3 33 3 50 C-13.17 50 -29.34 50 -46 50 C-46 48.68 -46 47.36 -46 46 C-45.04480469 45.6596875 -44.08960938 45.319375 -43.10546875 44.96875 C-26.81286445 38.947846 -14.30208743 29.49722987 -6 14 C-4.53220873 10.54993392 -3.20040935 7.08724487 -1.9453125 3.5546875 C-1 1 -1 1 0 0 Z " fill="#000000" transform="translate(46,0)"/>
<path d="M0 0 C16.17 0 32.34 0 49 0 C49 16.17 49 32.34 49 49 C47.68 48.67 46.36 48.34 45 48 C43.83203125 45.515625 43.83203125 45.515625 42.8125 42.25 C36.79776893 25.4933639 25.58382136 15.19772567 9.76953125 7.6640625 C6.58046448 6.20541532 3.3544147 5.03293019 0 4 C0 2.68 0 1.36 0 0 Z " fill="#000000" transform="translate(0,55)"/>
</svg>
